<svg aria-hidden="true" style="position: absolute; width: 0; height: 0; overflow: hidden;" version="1.1" xmlns="http://www.w3.org/2000/svg" xmlns:xlink="http://www.w3.org/1999/xlink">
<defs>

<symbol id="icon-burger" viewBox="0 0 32 32">
<path d="M6.4 11.733v-2.133h19.2v2.133h-19.2zM6.4 17.067h19.2v-2.133h-19.2v2.133zM6.4 22.4h19.2v-2.133h-19.2v2.133z"></path>
</symbol>

<symbol id="icon-facebook" viewBox="0 0 32 32">
<path d="M19 6h5v-6h-5c-3.86 0-7 3.14-7 7v3h-4v6h4v16h6v-16h5l1-6h-6v-3c0-0.542 0.458-1 1-1z"></path>
</symbol>

<symbol id="icon-linkedin2" viewBox="0 0 32 32">
<path d="M12 12h5.535v2.837h0.079c0.77-1.381 2.655-2.837 5.464-2.837 5.842 0 6.922 3.637 6.922 8.367v9.633h-5.769v-8.54c0-2.037-0.042-4.657-3.001-4.657-3.005 0-3.463 2.218-3.463 4.509v8.688h-5.767v-18z"></path>
<path d="M2 12h6v18h-6v-18z"></path>
<path d="M8 7c0 1.657-1.343 3-3 3s-3-1.343-3-3c0-1.657 1.343-3 3-3s3 1.343 3 3z"></path>
</symbol>

<symbol id="icon-instagram" viewBox="0 0 32 32">
<path d="M16 2.881c4.275 0 4.781 0.019 6.462 0.094 1.563 0.069 2.406 0.331 2.969 0.55 0.744 0.288 1.281 0.638 1.837 1.194 0.563 0.563 0.906 1.094 1.2 1.838 0.219 0.563 0.481 1.412 0.55 2.969 0.075 1.688 0.094 2.194 0.094 6.463s-0.019 4.781-0.094 6.463c-0.069 1.563-0.331 2.406-0.55 2.969-0.288 0.744-0.637 1.281-1.194 1.837-0.563 0.563-1.094 0.906-1.837 1.2-0.563 0.219-1.413 0.481-2.969 0.55-1.688 0.075-2.194 0.094-6.463 0.094s-4.781-0.019-6.463-0.094c-1.563-0.069-2.406-0.331-2.969-0.55-0.744-0.288-1.281-0.637-1.838-1.194-0.563-0.563-0.906-1.094-1.2-1.837-0.219-0.563-0.481-1.413-0.55-2.969-0.075-1.688-0.094-2.194-0.094-6.463s0.019-4.781 0.094-6.463c0.069-1.563 0.331-2.406 0.55-2.969 0.288-0.744 0.638-1.281 1.194-1.838 0.563-0.563 1.094-0.906 1.838-1.2 0.563-0.219 1.412-0.481 2.969-0.55 1.681-0.075 2.188-0.094 6.463-0.094zM16 0c-4.344 0-4.887 0.019-6.594 0.094-1.7 0.075-2.869 0.35-3.881 0.744-1.056 0.412-1.95 0.956-2.837 1.85-0.894 0.888-1.438 1.781-1.85 2.831-0.394 1.019-0.669 2.181-0.744 3.881-0.075 1.713-0.094 2.256-0.094 6.6s0.019 4.887 0.094 6.594c0.075 1.7 0.35 2.869 0.744 3.881 0.413 1.056 0.956 1.95 1.85 2.837 0.887 0.887 1.781 1.438 2.831 1.844 1.019 0.394 2.181 0.669 3.881 0.744 1.706 0.075 2.25 0.094 6.594 0.094s4.888-0.019 6.594-0.094c1.7-0.075 2.869-0.35 3.881-0.744 1.050-0.406 1.944-0.956 2.831-1.844s1.438-1.781 1.844-2.831c0.394-1.019 0.669-2.181 0.744-3.881 0.075-1.706 0.094-2.25 0.094-6.594s-0.019-4.887-0.094-6.594c-0.075-1.7-0.35-2.869-0.744-3.881-0.394-1.063-0.938-1.956-1.831-2.844-0.887-0.887-1.781-1.438-2.831-1.844-1.019-0.394-2.181-0.669-3.881-0.744-1.712-0.081-2.256-0.1-6.6-0.1v0z"></path>
<path d="M16 7.781c-4.537 0-8.219 3.681-8.219 8.219s3.681 8.219 8.219 8.219 8.219-3.681 8.219-8.219c0-4.537-3.681-8.219-8.219-8.219zM16 21.331c-2.944 0-5.331-2.387-5.331-5.331s2.387-5.331 5.331-5.331c2.944 0 5.331 2.387 5.331 5.331s-2.387 5.331-5.331 5.331z"></path>
<path d="M26.462 7.456c0 1.060-0.859 1.919-1.919 1.919s-1.919-0.859-1.919-1.919c0-1.060 0.859-1.919 1.919-1.919s1.919 0.859 1.919 1.919z"></path>
</symbol>

<symbol id="icon-icon-send" viewBox="0 0 32 32">
<path d="M32 0l-32 18 10.227 3.788 15.773-14.788-11.998 16.186 0.010 0.004-0.012-0.004v8.814l5.735-6.691 7.265 2.691 5-28z"></path>
</symbol>

<symbol id="icon-checkmark" viewBox="0 0 32 32">
<path d="M27 4l-15 15-7-7-5 5 12 12 20-20z"></path>
</symbol>

<symbol id="icon-footer-telegram" viewBox="0 0 38 32">
<path d="M34.357 1.197l-31.889 12.219c-2.176 0.869-2.164 2.075-0.399 2.613l8.187 2.538 18.943-11.876c0.896-0.542 1.714-0.25 1.041 0.343l-15.347 13.765-0.565 8.385c0.827 0 1.192-0.377 1.656-0.822l3.977-3.842 8.272 6.071c1.525 0.835 2.621 0.406 3-1.403l5.43-25.428c0.556-2.214-0.851-3.217-2.306-2.563z"></path>
</symbol>

<symbol id="icon-close" viewBox="0 0 32 32">
<path d="M26.667 7.303l-1.97-1.97-7.808 7.808-7.808-7.808-1.97 1.97 7.808 7.808-7.808 7.808 1.97 1.97 7.808-7.808 7.808 7.808 1.97-1.97-7.808-7.808 7.808-7.808z"></path>
</symbol>

<symbol id="icon-tiktok-icon" viewBox="0 0 32 32">
<path d="M25.762 7.416c-0.236-0.122-0.43-0.237-0.616-0.36l0.026 0.016c-0.573-0.382-1.070-0.807-1.512-1.283l-0.005-0.005c-1.131-1.294-1.554-2.607-1.709-3.527h0.006c-0.13-0.763-0.076-1.257-0.068-1.257h-5.152v19.924c0 0.267 0 0.532-0.011 0.793 0 0.032-0.003 0.063-0.005 0.098 0 0.014 0 0.029-0.003 0.044 0 0.004 0 0.008 0 0.011-0.117 1.49-0.964 2.76-2.18 3.461l-0.021 0.011c-0.611 0.354-1.344 0.563-2.126 0.563-0.002 0-0.004 0-0.006 0h0c-2.401 0-4.346-1.957-4.346-4.375s1.946-4.375 4.346-4.375c0.001 0 0.003 0 0.004 0 0.477 0 0.936 0.078 1.365 0.221l-0.030-0.009 0.006-5.246c-0.368-0.050-0.794-0.079-1.226-0.079-2.348 0-4.498 0.845-6.163 2.248l0.014-0.012c-0.877 0.765-1.612 1.664-2.18 2.67l-0.026 0.050c-0.217 0.375-1.038 1.882-1.138 4.328-0.063 1.388 0.354 2.826 0.553 3.421v0.012c0.125 0.35 0.609 1.544 1.399 2.551 0.641 0.809 1.376 1.504 2.199 2.084l0.033 0.022v-0.012l0.013 0.012c2.494 1.695 5.26 1.584 5.26 1.584 0.479-0.019 2.082 0 3.904-0.863 2.020-0.957 3.17-2.383 3.17-2.383 0.708-0.817 1.291-1.767 1.704-2.804l0.023-0.067c0.466-1.226 0.622-2.696 0.622-3.283v-10.57c0.063 0.037 0.895 0.588 0.895 0.588s1.199 0.769 3.071 1.269c1.343 0.356 3.151 0.431 3.151 0.431v-5.115c-0.634 0.069-1.921-0.131-3.238-0.788z"></path>
</symbol>

<symbol id="icon-email-icon" viewBox="0 0 32 32">
<path d="M31.917 7.017c-0.144-0.727-0.466-1.392-0.916-1.941-0.095-0.12-0.194-0.227-0.301-0.334-0.797-0.801-1.916-1.301-3.138-1.301h-23.122c-1.222 0-2.337 0.5-3.138 1.301-0.107 0.107-0.206 0.214-0.301 0.334-0.45 0.549-0.772 1.214-0.913 1.941-0.058 0.28-0.087 0.57-0.087 0.863v16.24c0 0.623 0.132 1.222 0.368 1.763 0.219 0.516 0.541 0.983 0.933 1.375 0.099 0.099 0.198 0.19 0.306 0.281 0.768 0.636 1.759 1.020 2.832 1.020h23.122c1.074 0 2.069-0.384 2.833-1.024 0.107-0.087 0.207-0.178 0.306-0.277 0.392-0.392 0.714-0.859 0.937-1.375v-0.004c0.236-0.541 0.363-1.136 0.363-1.759v-16.24c0-0.293-0.029-0.583-0.083-0.863zM2.907 6.348c0.397-0.396 0.929-0.636 1.532-0.636h23.122c0.603 0 1.14 0.24 1.532 0.636 0.070 0.071 0.136 0.149 0.195 0.227l-12.119 10.562c-0.334 0.293-0.747 0.438-1.169 0.438-0.417 0-0.83-0.145-1.168-0.438l-12.115-10.567c0.054-0.078 0.12-0.152 0.19-0.223zM2.271 24.12v-15.199l8.77 7.651-8.766 7.643c-0.004-0.029-0.004-0.062-0.004-0.095zM27.561 26.287h-23.122c-0.393 0-0.76-0.103-1.073-0.285l9.249-8.060 0.863 0.751c0.723 0.628 1.627 0.946 2.522 0.946 0.9 0 1.805-0.318 2.527-0.946l0.863-0.751 9.245 8.060c-0.314 0.181-0.681 0.285-1.074 0.285zM29.729 24.12c0 0.033 0 0.066-0.004 0.095l-8.766-7.638 8.77-7.651v15.195z"></path>
</symbol>
<symbol id="icon-smartphone" viewBox="0 0 20 32">
<path d="M17 0h-14c-1.654 0-3 1.346-3 3v26c0 1.654 1.346 3 3 3h14c1.654 0 3-1.346 3-3v-26c0-1.654-1.346-3-3-3zM3 2h14c0.552 0 1 0.448 1 1v21h-16v-21c0-0.552 0.448-1 1-1zM17 30h-14c-0.552 0-1-0.448-1-1v-3h16v3c0 0.552-0.448 1-1 1z"></path>
<path d="M4.707 27.478c0.391 0.365 0.391 0.956 0 1.321s-1.024 0.365-1.414 0c-0.391-0.365-0.391-0.956 0-1.321s1.024-0.365 1.414 0z"></path>
</symbol>
<symbol id="icon-circle-down" viewBox="0 0 32 32">
<path d="M32 16c0-8.837-7.163-16-16-16s-16 7.163-16 16 7.163 16 16 16 16-7.163 16-16zM3 16c0-7.18 5.82-13 13-13s13 5.82 13 13-5.82 13-13 13-13-5.82-13-13z"></path>
<path d="M9.914 11.086l-2.829 2.829 8.914 8.914 8.914-8.914-2.828-2.828-6.086 6.086z"></path>
</symbol>
<symbol id="icon-check-icon" viewBox="0 0 32 32">
<path fill="none" stroke="#e4aa28" style="stroke: var(--color1, #e4aa28)" stroke-linejoin="round" stroke-linecap="round" stroke-miterlimit="4" stroke-width="2.1733" d="M23.745 4.071c-2.882-1.871-6.345-2.636-9.747-2.152s-6.514 2.183-8.761 4.784c-2.246 2.601-3.475 5.927-3.459 9.363s1.276 6.751 3.547 9.33c2.271 2.58 5.398 4.25 8.805 4.702s6.862-0.345 9.726-2.243c2.865-1.898 4.945-4.769 5.857-8.083s0.593-6.845-0.898-9.941"></path>
<path fill="none" stroke="#e4aa28" style="stroke: var(--color1, #e4aa28)" stroke-linejoin="round" stroke-linecap="round" stroke-miterlimit="4" stroke-width="2.1733" d="M9.905 15.153l5.541 5.587 14.776-14.9"></path>
</symbol>
<symbol id="icon-arrow-icon" viewBox="0 0 32 32">
<path fill="none" stroke="#e4aa28" style="stroke: var(--color1, #e4aa28)" stroke-linejoin="round" stroke-linecap="round" stroke-miterlimit="4" stroke-width="2.8488" d="M29.714 26.286v-24M29.714 2.286h-24M29.714 2.286l-27.429 27.429"></path>
</symbol>
</defs>
</svg>
